<svg xmlns="http://www.w3.org/2000/svg" viewBox="0 0 200 200"><g id="Cultura"><path d="M65.53,107.69A131.16,131.16,0,0,1,51.3,95.48C32.88,77.38,25,60.63,26.62,56c2-5.72,14.59-15.38,34.92-22.78,13-4.74,24.24-6.74,32-6.74,4.32,0,7.56.63,9.42,1.74,3.2,1.92,6.69,12.63,7.13,28.86,1.73.07,3.51.22,5.35.42,2.8.31,5.7.75,8.68,1.32a117.18,117.18,0,0,0-1.51-18.14,54.63,54.63,0,0,0-4.72-15.55,21.11,21.11,0,0,0-7.72-8.91c-15-9-44.66.67-53.4,3.85S19.07,34.87,13.38,51.41c-2.33,6.76-.25,15.75,6.19,26.73a138.66,138.66,0,0,0,21.92,27.33,130.69,130.69,0,0,0,24.15,19.09A163.86,163.86,0,0,1,65.53,107.69Z"/><path d="M98.24,49.67a3.51,3.51,0,0,0-3-5.73L76.84,45.73A3.5,3.5,0,0,0,75,51.93c3.68,3,7.37,4.48,10.94,4.48C90.3,56.41,94.5,54.15,98.24,49.67Z"/><path d="M58.57,52.38,43.36,62.81a3.51,3.51,0,0,0,1.36,6.34,24.08,24.08,0,0,0,4.27.4c8,0,13.28-4.72,15-13.62a3.5,3.5,0,0,0-5.42-3.55Z"/><path d="M59.9,88.39A4,4,0,1,0,66.43,93c.31-.44.63-.87.95-1.28A65.15,65.15,0,0,1,71.94,77,38.37,38.37,0,0,0,59.9,88.39Z"/><path d="M186.62,106.4C180.93,89.86,152,78.2,143.25,75a146.05,146.05,0,0,0-19.41-5.57,92.59,92.59,0,0,0-13.91-1.92c-7.48-.41-14.72.43-20.08,3.65A15.52,15.52,0,0,0,87.44,73a25.15,25.15,0,0,0-6.13,8.85,58.51,58.51,0,0,0-3.9,13.84,118,118,0,0,0-1.51,18.6c0,5.09.18,10.37.66,15.68,0,.25,0,.49.07.74,1.23,12.76,3.85,24.42,7.56,33.7,4.71,11.75,11,19.11,18.57,21.88a22.5,22.5,0,0,0,7.78,1.32c6,0,12.88-2.06,20.51-6.14,8.82-4.72,18.31-12,27.46-21a138.66,138.66,0,0,0,21.92-27.33c4.74-8.07,7.11-15.07,7.11-20.9A17.69,17.69,0,0,0,186.62,106.4ZM148.7,150.47c-18.32,18-34.57,25-41.15,22.62-6.29-2.3-13.85-16.89-16.63-40.58-.13-1-.25-2.11-.35-3.19-.36-3.77-.57-7.38-.64-10.79-.46-19.84,3.52-33.18,7.13-35.35,1.86-1.12,5.1-1.75,9.42-1.75.67,0,1.37,0,2.09,0a80.89,80.89,0,0,1,13.86,2,129.91,129.91,0,0,1,16,4.73,111.37,111.37,0,0,1,24.34,12c5.94,4,9.6,7.9,10.58,10.76C175,115.62,167.12,132.37,148.7,150.47Z"/><path d="M104.65,105.24l11.17,4.07,6.17,2.24a3.5,3.5,0,0,0,4.36-4.79,18.18,18.18,0,0,0-7-8.25c-4-2.38-9-2.38-14.6.1l-.37.16a3.49,3.49,0,0,0-2,3.32,3.42,3.42,0,0,0,.56,1.75A3.5,3.5,0,0,0,104.65,105.24Z"/><path d="M136.61,110.49a3.5,3.5,0,0,0,.26,6.47l17.34,6.31a3.31,3.31,0,0,0,1.2.22,3.51,3.51,0,0,0,3.16-5C154,108.92,146.23,106.08,136.61,110.49Z"/><path d="M144.11,130.48a51.12,51.12,0,0,1-33.66-10.63c-1.19-.91-2.36-1.87-3.52-2.9a4,4,0,0,0-6.42,1.62,2.25,2.25,0,0,0-.08.24,30,30,0,0,0-1.84,11.9,24.27,24.27,0,0,0,2.46,9.41,24,24,0,0,0,2.48,4,25.26,25.26,0,0,0,11.52,8.39,25.87,25.87,0,0,0,8.83,1.57,24.31,24.31,0,0,0,5.38-.6,23.26,23.26,0,0,0,4.46-1.46c6.46-2.84,11.35-8.34,14.16-15.91a2.6,2.6,0,0,0,.1-.25,4,4,0,0,0-3.87-5.37ZM106.66,127a58.9,58.9,0,0,0,31.19,11.36,17.2,17.2,0,0,1-7.36,6.34,17,17,0,0,1-12.71.29A16.52,16.52,0,0,1,106.66,127Z"/></g></svg>