<?xml version="1.0" encoding="UTF-8"?>
<svg xmlns="http://www.w3.org/2000/svg" xmlns:xlink="http://www.w3.org/1999/xlink" width="810pt" height="809.999993pt" viewBox="0 0 810 809.999993" version="1.2">
<defs>
<clipPath id="clip1">
  <path d="M 268.503906 251 L 541.503906 251 L 541.503906 474.46875 L 268.503906 474.46875 Z M 268.503906 251 "/>
</clipPath>
</defs>
<g id="surface1">
<path style=" stroke:none;fill-rule:nonzero;fill:rgb(19.60907%,22.749329%,25.099182%);fill-opacity:1;" d="M 450.203125 312.492188 L 453.171875 313.238281 C 455.605469 313.84375 458.074219 312.367188 458.699219 309.933594 C 459.300781 307.5 457.828125 305.027344 455.390625 304.425781 L 452.421875 303.679688 C 438.1875 300.089844 423.1875 305.933594 415.0625 318.179688 C 413.675781 320.277344 414.246094 323.101562 416.324219 324.488281 C 417.109375 325.003906 417.980469 325.253906 418.851562 325.253906 C 420.324219 325.253906 421.765625 324.523438 422.636719 323.210938 C 428.644531 314.164062 439.714844 309.878906 450.203125 312.492188 "/>
<path style=" stroke:none;fill-rule:nonzero;fill:rgb(19.60907%,22.749329%,25.099182%);fill-opacity:1;" d="M 492.859375 372.84375 C 489.019531 384.433594 478.25 392.234375 466.089844 392.234375 C 453.933594 392.234375 443.164062 384.433594 439.324219 372.84375 L 438.152344 369.308594 C 456.175781 375.6875 476.007812 375.6875 494.03125 369.308594 Z M 499.488281 357.117188 C 478.570312 367.621094 453.597656 367.621094 432.714844 357.117188 C 431.058594 356.300781 429.070312 356.550781 427.683594 357.738281 C 426.296875 358.949219 425.761719 360.867188 426.351562 362.609375 L 430.6875 375.707031 C 435.769531 391.027344 450.007812 401.332031 466.089844 401.332031 C 482.195312 401.332031 496.414062 391.027344 501.496094 375.707031 L 505.832031 362.609375 C 506.417969 360.867188 505.886719 358.949219 504.5 357.738281 C 503.113281 356.550781 501.121094 356.300781 499.488281 357.117188 "/>
<path style=" stroke:none;fill-rule:nonzero;fill:rgb(19.60907%,22.749329%,25.099182%);fill-opacity:1;" d="M 484.914062 314.890625 L 487.882812 314.144531 C 498.351562 311.515625 509.441406 315.816406 515.449219 324.863281 C 516.320312 326.175781 517.757812 326.90625 519.234375 326.90625 C 520.105469 326.90625 520.976562 326.65625 521.757812 326.140625 C 523.835938 324.753906 524.425781 321.929688 523.039062 319.832031 C 514.898438 307.570312 499.859375 301.742188 485.660156 305.332031 L 482.710938 306.058594 C 480.257812 306.679688 478.78125 309.152344 479.386719 311.585938 C 480.007812 314.019531 482.496094 315.496094 484.914062 314.890625 "/>
<g clip-path="url(#clip1)" clip-rule="nonzero">
<path style=" stroke:none;fill-rule:nonzero;fill:rgb(19.60907%,22.749329%,25.099182%);fill-opacity:1;" d="M 532.402344 330.316406 C 532.402344 367.035156 516.035156 401.246094 487.507812 424.171875 L 486.121094 425.289062 C 479.777344 430.390625 471.832031 433.179688 463.726562 433.179688 C 454.949219 433.179688 446.488281 429.945312 439.929688 424.082031 C 429.726562 414.984375 421.195312 404.195312 414.546875 392.039062 C 407.316406 378.746094 402.621094 364.191406 400.722656 349.261719 C 400.097656 344.304688 399.777344 339.273438 399.777344 334.261719 L 399.777344 270.605469 C 442.683594 256.957031 489.515625 256.957031 532.402344 270.605469 Z M 365.332031 456.015625 L 363.949219 457.136719 C 357.621094 462.238281 349.65625 465.027344 341.554688 465.027344 C 332.773438 465.027344 324.332031 461.792969 317.753906 455.929688 C 292.25 433.144531 277.605469 400.410156 277.605469 366.109375 L 277.605469 305.542969 C 314.253906 316.703125 353.105469 318.410156 390.679688 310.519531 L 390.679688 334.261719 C 390.679688 336.929688 390.769531 339.578125 390.925781 342.242188 C 390.980469 343.132812 391.105469 344.003906 391.175781 344.871094 C 391.320312 346.648438 391.460938 348.410156 391.675781 350.167969 C 391.816406 351.234375 392.011719 352.300781 392.171875 353.367188 C 392.402344 354.933594 392.617188 356.496094 392.917969 358.058594 C 393.132812 359.179688 393.398438 360.296875 393.648438 361.417969 C 393.96875 362.894531 394.269531 364.386719 394.625 365.84375 C 394.925781 367 395.265625 368.152344 395.601562 369.308594 C 395.992188 370.714844 396.367188 372.117188 396.8125 373.503906 C 397.183594 374.675781 397.609375 375.832031 398.019531 377.003906 C 398.5 378.355469 398.945312 379.707031 399.457031 381.039062 C 399.921875 382.195312 400.417969 383.347656 400.898438 384.484375 C 401.449219 385.800781 402 387.117188 402.585938 388.394531 C 403.121094 389.550781 403.6875 390.671875 404.257812 391.808594 C 404.738281 392.804688 405.183594 393.796875 405.699219 394.777344 C 398.890625 419.105469 384.957031 440.253906 365.332031 456.015625 Z M 538.394531 262.980469 C 491.773438 247.378906 440.410156 247.378906 393.789062 262.980469 C 391.921875 263.601562 390.679688 265.34375 390.679688 267.300781 L 390.679688 301.191406 C 352.058594 309.648438 311.960938 307.550781 274.492188 295.003906 C 273.109375 294.527344 271.578125 294.773438 270.40625 295.628906 C 269.214844 296.480469 268.503906 297.847656 268.503906 299.324219 L 268.503906 366.109375 C 268.503906 402.988281 284.25 438.210938 311.695312 462.71875 C 319.921875 470.074219 330.535156 474.125 341.554688 474.125 C 351.71875 474.125 361.691406 470.609375 369.636719 464.226562 L 371.039062 463.109375 C 389.949219 447.914062 403.9375 428.082031 411.917969 405.277344 C 418.121094 414.769531 425.445312 423.351562 433.867188 430.871094 C 442.113281 438.226562 452.707031 442.28125 463.726562 442.28125 C 473.894531 442.28125 483.882812 438.761719 491.828125 432.382812 L 493.214844 431.261719 C 523.910156 406.59375 541.503906 369.808594 541.503906 330.316406 L 541.503906 267.300781 C 541.503906 265.34375 540.261719 263.601562 538.394531 262.980469 "/>
</g>
<path style=" stroke:none;fill-rule:nonzero;fill:rgb(19.60907%,22.749329%,25.099182%);fill-opacity:1;" d="M 322.589844 352.25 L 324.578125 349.246094 C 325.964844 347.164062 325.398438 344.339844 323.300781 342.9375 C 321.203125 341.550781 318.375 342.136719 316.988281 344.234375 L 315 347.21875 C 309.703125 355.214844 300.816406 359.980469 291.253906 359.980469 C 288.75 359.980469 286.703125 362.023438 286.703125 364.527344 C 286.703125 367.050781 288.75 369.078125 291.253906 369.078125 C 303.875 369.078125 315.585938 362.785156 322.589844 352.25 "/>
<path style=" stroke:none;fill-rule:nonzero;fill:rgb(19.60907%,22.749329%,25.099182%);fill-opacity:1;" d="M 367.464844 427.050781 C 365.582031 429.875 361.867188 430.851562 358.828125 429.34375 C 348.34375 424.082031 335.828125 424.082031 325.363281 429.34375 C 322.320312 430.871094 318.609375 429.875 316.722656 427.050781 C 314.644531 423.902344 315.496094 419.675781 318.609375 417.578125 C 325.753906 412.796875 333.929688 410.414062 342.085938 410.414062 C 350.261719 410.414062 358.457031 412.796875 365.582031 417.578125 C 368.691406 419.675781 369.546875 423.902344 367.464844 427.050781 Z M 370.648438 410.023438 C 353.300781 398.402344 330.890625 398.402344 313.542969 410.023438 C 306.273438 414.875 304.300781 424.773438 309.152344 432.078125 C 312.171875 436.628906 317.203125 439.167969 322.375 439.167969 C 324.757812 439.167969 327.191406 438.617188 329.449219 437.480469 C 337.375 433.5 346.832031 433.5 354.742188 437.480469 C 361.902344 441.070312 370.613281 438.742188 375.039062 432.078125 C 379.890625 424.773438 377.917969 414.875 370.648438 410.023438 "/>
<path style=" stroke:none;fill-rule:nonzero;fill:rgb(19.60907%,22.749329%,25.099182%);fill-opacity:1;" d="M 384.210938 392.21875 C 382.289062 395.148438 377.597656 395.148438 375.660156 392.21875 C 374.699219 390.757812 374.539062 389 375.234375 387.382812 L 379.945312 376.417969 L 384.652344 387.382812 C 385.328125 389 385.167969 390.757812 384.210938 392.21875 Z M 393.007812 383.8125 L 384.121094 363.070312 C 384.101562 363.054688 384.085938 363.035156 384.066406 363 C 383.445312 361.257812 381.808594 359.980469 379.835938 359.980469 C 370.273438 359.980469 361.386719 355.214844 356.074219 347.21875 L 354.101562 344.234375 C 352.714844 342.136719 349.890625 341.550781 347.792969 342.9375 C 345.695312 344.339844 345.125 347.164062 346.511719 349.246094 L 348.503906 352.25 C 354.296875 360.972656 363.34375 366.730469 373.4375 368.472656 L 366.863281 383.8125 C 364.976562 388.21875 365.421875 393.230469 368.070312 397.226562 C 370.71875 401.226562 375.144531 403.625 379.945312 403.625 C 384.726562 403.625 389.167969 401.226562 391.796875 397.226562 C 394.445312 393.230469 394.890625 388.21875 393.007812 383.8125 "/>
</g>
</svg>
