<?xml version="1.0" encoding="UTF-8"?>
<svg xmlns="http://www.w3.org/2000/svg" xmlns:xlink="http://www.w3.org/1999/xlink" width="810pt" height="809.999993pt" viewBox="0 0 810 809.999993" version="1.2">
<defs>
<clipPath id="clip1">
  <path d="M 256.179688 257 L 553.929688 257 L 553.929688 553.929688 L 256.179688 553.929688 Z M 256.179688 257 "/>
</clipPath>
</defs>
<g id="surface1">
<g clip-path="url(#clip1)" clip-rule="nonzero">
<path style=" stroke:none;fill-rule:nonzero;fill:rgb(19.60907%,22.749329%,25.099182%);fill-opacity:1;" d="M 543.878906 525.207031 L 457.710938 525.207031 L 457.710938 529.996094 C 457.710938 537.921875 451.28125 544.355469 443.351562 544.355469 C 435.421875 544.355469 428.988281 537.921875 428.988281 529.996094 L 428.988281 525.207031 L 342.824219 525.207031 L 342.824219 409.03125 C 345.871094 409.3125 349.070312 409.554688 352.398438 409.761719 L 352.398438 515.632812 L 534.304688 515.632812 L 534.304688 410.320312 L 543.878906 410.320312 Z M 294.953125 339.863281 L 360.421875 369.613281 C 363.9375 371.222656 367.675781 372.023438 371.546875 372.023438 C 375.417969 372.023438 379.15625 371.222656 382.671875 369.613281 L 448.136719 339.863281 L 448.136719 388.238281 C 440.957031 391.546875 416.910156 400.746094 371.546875 400.746094 C 326.164062 400.746094 302.117188 391.546875 294.953125 388.238281 Z M 266.234375 314.582031 C 266.234375 313.554688 266.832031 312.597656 267.785156 312.167969 L 364.382812 268.261719 C 366.648438 267.234375 369.058594 266.710938 371.546875 266.710938 C 374.035156 266.710938 376.445312 267.234375 378.707031 268.261719 L 475.308594 312.167969 C 476.242188 312.597656 476.859375 313.554688 476.859375 314.582031 C 476.859375 315.609375 476.242188 316.5625 475.308594 316.992188 L 459.414062 324.210938 L 367.730469 305.101562 L 365.785156 314.488281 L 444.679688 330.90625 L 378.707031 360.898438 C 374.183594 362.957031 368.910156 362.957031 364.382812 360.898438 L 267.785156 316.992188 C 266.832031 316.5625 266.234375 315.609375 266.234375 314.582031 Z M 361.972656 410.171875 C 365.078125 410.265625 368.238281 410.320312 371.546875 410.320312 C 403.410156 410.320312 425.195312 405.984375 438.5625 401.960938 L 438.5625 506.058594 L 361.972656 506.058594 Z M 476.859375 337.617188 L 476.859375 363.328125 C 471.605469 365.21875 467.773438 370.042969 467.378906 375.839844 L 457.863281 413.949219 L 457.710938 429.46875 L 505.582031 429.46875 L 505.582031 415.109375 L 497.335938 381.597656 L 524.730469 381.597656 L 524.730469 506.058594 L 448.136719 506.058594 L 448.136719 398.652344 C 452.699219 396.820312 455.09375 395.453125 455.394531 395.269531 L 457.710938 393.882812 L 457.710938 335.503906 L 460.535156 334.214844 Z M 481.648438 372.023438 C 484.285156 372.023438 486.433594 374.175781 486.433594 376.8125 C 486.433594 379.449219 484.285156 381.597656 481.648438 381.597656 C 479.011719 381.597656 476.859375 379.449219 476.859375 376.8125 C 476.859375 374.175781 479.011719 372.023438 481.648438 372.023438 Z M 473.980469 388.910156 C 476.207031 390.332031 478.824219 391.171875 481.648438 391.171875 C 484.46875 391.171875 487.089844 390.332031 489.3125 388.910156 L 496.007812 415.6875 L 496.007812 419.894531 L 467.285156 419.894531 L 467.285156 415.6875 Z M 534.304688 400.746094 L 534.304688 372.023438 L 495.128906 372.023438 C 493.6875 367.96875 490.492188 364.769531 486.433594 363.328125 L 486.433594 329.839844 L 475.289062 327.519531 L 479.273438 325.707031 C 483.609375 323.726562 486.433594 319.367188 486.433594 314.582031 C 486.433594 309.792969 483.609375 305.4375 479.273438 303.457031 L 382.671875 259.550781 C 375.621094 256.351562 367.46875 256.351562 360.421875 259.550781 L 263.820312 303.457031 C 259.484375 305.4375 256.660156 309.792969 256.660156 314.582031 C 256.660156 319.367188 259.484375 323.726562 263.820312 325.707031 L 285.378906 335.503906 L 285.378906 393.882812 L 287.699219 395.269531 C 288.464844 395.734375 302.339844 403.8125 333.25 407.945312 L 333.25 534.78125 L 419.902344 534.78125 C 422.128906 545.703125 431.796875 553.929688 443.351562 553.929688 C 454.90625 553.929688 464.574219 545.703125 466.800781 534.78125 L 553.453125 534.78125 L 553.453125 400.746094 L 534.304688 400.746094 "/>
</g>
<path style=" stroke:none;fill-rule:nonzero;fill:rgb(19.60907%,22.749329%,25.099182%);fill-opacity:1;" d="M 381.121094 467.765625 L 419.417969 467.765625 L 419.417969 486.914062 L 381.121094 486.914062 Z M 371.546875 496.488281 L 428.988281 496.488281 L 428.988281 458.191406 L 371.546875 458.191406 L 371.546875 496.488281 "/>
<path style=" stroke:none;fill-rule:nonzero;fill:rgb(19.60907%,22.749329%,25.099182%);fill-opacity:1;" d="M 371.546875 448.617188 L 428.988281 448.617188 L 428.988281 439.042969 L 371.546875 439.042969 L 371.546875 448.617188 "/>
<path style=" stroke:none;fill-rule:nonzero;fill:rgb(19.60907%,22.749329%,25.099182%);fill-opacity:1;" d="M 371.546875 419.894531 L 371.546875 429.46875 L 428.988281 429.46875 L 428.988281 419.894531 L 371.546875 419.894531 "/>
<path style=" stroke:none;fill-rule:nonzero;fill:rgb(19.60907%,22.749329%,25.099182%);fill-opacity:1;" d="M 457.710938 448.617188 L 515.15625 448.617188 L 515.15625 439.042969 L 457.710938 439.042969 L 457.710938 448.617188 "/>
<path style=" stroke:none;fill-rule:nonzero;fill:rgb(19.60907%,22.749329%,25.099182%);fill-opacity:1;" d="M 457.710938 467.765625 L 515.15625 467.765625 L 515.15625 458.191406 L 457.710938 458.191406 L 457.710938 467.765625 "/>
<path style=" stroke:none;fill-rule:nonzero;fill:rgb(19.60907%,22.749329%,25.099182%);fill-opacity:1;" d="M 457.710938 486.914062 L 515.15625 486.914062 L 515.15625 477.339844 L 457.710938 477.339844 L 457.710938 486.914062 "/>
<path style=" stroke:none;fill-rule:nonzero;fill:rgb(19.60907%,22.749329%,25.099182%);fill-opacity:1;" d="M 307.59375 304.597656 L 311.558594 313.308594 L 362.777344 290.03125 L 358.8125 281.316406 L 307.59375 304.597656 "/>
</g>
</svg>
