<svg xmlns="http://www.w3.org/2000/svg" viewBox="0 0 200 200"><g id="Educación"><path d="M141,106.4a7.5,7.5,0,0,0-7.5,7.5v29.26c0,9.51-17,15.2-33.53,15.2s-33.53-5.69-33.53-15.2V113.9a7.5,7.5,0,0,0-15,0v29.26c0,9.92,6,18.36,17,23.75,8.45,4.16,19.64,6.45,31.51,6.45,23.38,0,48.53-9.45,48.53-30.2V113.9A7.5,7.5,0,0,0,141,106.4Z"/><path d="M173.83,64.45,103.43,27.5a7.53,7.53,0,0,0-7,0L25.81,64.57a7.5,7.5,0,0,0,0,13.28L96.46,115a7.49,7.49,0,0,0,7,0L163.2,83.64v21.22a7.5,7.5,0,1,0,15,0V71.26A7.5,7.5,0,0,0,173.83,64.45ZM100,99.86,45.43,71.21,100,42.61l54.57,28.65Z"/></g></svg>