<svg xmlns="http://www.w3.org/2000/svg" viewBox="0 0 1666.16 649.57"><defs><style>.cls-1,.cls-2,.cls-3{fill:#fff;}.cls-2{font-size:232px;}.cls-2,.cls-3{font-family:LocareBrush, Locare Brush;}.cls-3{font-size:219px;}</style></defs><title>Logo Qosqo Mappers Unsaac</title><g id="Capa_2" data-name="Capa 2"><path class="cls-1" d="M222,187.68c11.4,6.17,20.22,15.18,64.14,4.26,25-6.21,91.44,1.92,111.42,53.7,22.68,58.79-5.52,98.78-19,111.54-14.39,13.61-56.06,43.37-108.72,21.24-61.68-25.92-63.18-92.7-62-119.1.72-20.64,7.48-27.1,3.48-40.21s-6-17.85-16.87-32.31c-11.83-15.74-33.65-23.6-43.25-24.08s-31.08.45-43-1.92C94,158,74.89,142,71.06,126.72S64.4,102.6,73.4,82c8-12.6,12.16-17.1,22.68-23.28,12.48-7.33,27.75-9.24,46.14-3.57,19.88,6.13,30,26.56,30,26.56s8,16.91,7,35.81c-3.38,25.44,19.32,51,20.91,53S210.62,181.51,222,187.68Z"/></g><g id="Capa_3" data-name="Capa 3"><path class="cls-1" d="M306.92,586.33S325,592,353.6,566.05,471.68,445.38,471.68,445.38,529,388.5,534.32,311.89C540.38,224,512,150.3,423.44,92,349.28,45.54,256.88,65.1,242.72,79.38c-10.44,11.16-20.31,26.77-3.57,49.33,16,21.57,49.29-1.63,93.09,7.43,14.34,1.56,50.7,11.82,78.51,37.45,26.11,24,36.4,48.3,42.82,66,5.78,16,10.31,44.47,5.05,73-7,37.74-32.06,74.77-52.5,91.23C357,445.14,303.2,438.92,296,438.61s-59.23-3.55-101.61-50.71c-32.13-35.28-39.33-75.24-38.07-112.32.33-9.68,3.6-19.32,3.6-31.37-.72-10.44-5-32.16-25.44-33.84s-29.76,7-29.76,7L92.48,231.49a46,46,0,0,0-7.62,19.07c-1.82,11.49-3.31,18.6-3.31,27s.61,33.18.61,34.14,6.72,41.52,13.68,55.68,14.4,44.64,51.3,80.28c24,23.19,93.66,95.35,93.66,95.35S274.28,587.89,306.92,586.33Z"/><text class="cls-2" transform="translate(573.84 321.66)">QOSQOMAPPERS</text><text class="cls-3" transform="translate(833.08 507.73)">UNSAAC</text></g></svg>