<?xml version="1.0" encoding="UTF-8"?>
<svg xmlns="http://www.w3.org/2000/svg" xmlns:xlink="http://www.w3.org/1999/xlink" width="810pt" height="809.999993pt" viewBox="0 0 810 809.999993" version="1.2">
<defs>
<clipPath id="clip1">
  <path d="M 235.242188 263.675781 L 574.992188 263.675781 L 574.992188 546.425781 L 235.242188 546.425781 Z M 235.242188 263.675781 "/>
</clipPath>
</defs>
<g id="surface1">
<g clip-path="url(#clip1)" clip-rule="nonzero">
<path style=" stroke:none;fill-rule:nonzero;fill:rgb(19.60907%,22.749329%,25.099182%);fill-opacity:1;" d="M 563.511719 393.742188 L 246.722656 393.742188 L 246.722656 331.535156 L 354.203125 331.535156 L 354.203125 359.8125 C 354.203125 362.933594 356.738281 365.46875 359.863281 365.46875 L 450.375 365.46875 C 453.496094 365.46875 456.03125 362.933594 456.03125 359.8125 L 456.03125 331.535156 L 563.511719 331.535156 Z M 489.972656 506.84375 L 489.972656 427.671875 L 523.914062 427.671875 L 523.914062 506.84375 Z M 552.199219 535.117188 L 489.972656 535.117188 L 489.972656 518.152344 L 529.570312 518.152344 C 532.695312 518.152344 535.226562 515.621094 535.226562 512.496094 L 535.226562 422.015625 C 535.226562 418.894531 532.695312 416.363281 529.570312 416.363281 L 280.664062 416.363281 C 277.539062 416.363281 275.007812 418.894531 275.007812 422.015625 L 275.007812 512.496094 C 275.007812 515.621094 277.539062 518.152344 280.664062 518.152344 L 416.429688 518.152344 L 416.429688 535.117188 L 258.035156 535.117188 L 258.035156 405.050781 L 552.199219 405.050781 Z M 427.746094 427.671875 L 478.660156 427.671875 L 478.660156 535.117188 L 427.746094 535.117188 Z M 416.429688 506.84375 L 286.320312 506.84375 L 286.320312 427.671875 L 416.429688 427.671875 Z M 354.203125 298.757812 L 354.203125 320.226562 L 329.660156 320.226562 Z M 365.519531 274.988281 L 444.714844 274.988281 L 444.714844 354.15625 L 365.519531 354.15625 Z M 480.574219 320.226562 L 456.03125 320.226562 L 456.03125 298.757812 Z M 569.171875 320.226562 L 497.757812 320.226562 L 456.03125 283.730469 L 456.03125 269.332031 C 456.03125 266.210938 453.496094 263.675781 450.375 263.675781 L 359.863281 263.675781 C 356.738281 263.675781 354.203125 266.210938 354.203125 269.332031 L 354.203125 283.730469 L 312.480469 320.226562 L 241.066406 320.226562 C 237.941406 320.226562 235.40625 322.757812 235.40625 325.882812 L 235.40625 399.398438 C 235.40625 402.519531 237.941406 405.050781 241.066406 405.050781 L 246.722656 405.050781 L 246.722656 540.773438 C 246.722656 543.894531 249.253906 546.425781 252.378906 546.425781 L 557.855469 546.425781 C 560.980469 546.425781 563.511719 543.894531 563.511719 540.773438 L 563.511719 405.050781 L 569.171875 405.050781 C 572.292969 405.050781 574.828125 402.519531 574.828125 399.398438 L 574.828125 325.882812 C 574.828125 322.757812 572.292969 320.226562 569.171875 320.226562 "/>
</g>
<path style=" stroke:none;fill-rule:nonzero;fill:rgb(19.60907%,22.749329%,25.099182%);fill-opacity:1;" d="M 410.773438 291.953125 L 399.460938 291.953125 L 399.460938 308.917969 L 382.488281 308.917969 L 382.488281 320.226562 L 399.460938 320.226562 L 399.460938 337.191406 L 410.773438 337.191406 L 410.773438 320.226562 L 427.746094 320.226562 L 427.746094 308.917969 L 410.773438 308.917969 L 410.773438 291.953125 "/>
<path style=" stroke:none;fill-rule:nonzero;fill:rgb(19.60907%,22.749329%,25.099182%);fill-opacity:1;" d="M 439.058594 478.566406 L 439.058594 501.1875 L 450.375 501.1875 L 450.375 478.566406 L 439.058594 478.566406 "/>
</g>
</svg>
