<svg xmlns="http://www.w3.org/2000/svg" viewBox="0 0 200 200"><g id="Salud"><path d="M173.81,35.64a47.26,47.26,0,0,0-36.18-13.77C124.59,22.49,111.7,28,100,38,83.61,24.09,64.73,18.8,47.32,23.46A47.22,47.22,0,0,0,14,56.77a50.21,50.21,0,0,0,.07,25.87,17.19,17.19,0,0,1,2-.12H29.76A36.38,36.38,0,0,1,28.5,60.65,31.78,31.78,0,0,1,51.2,38a33.43,33.43,0,0,1,8.69-1.13c11.64,0,23.93,5.81,34.81,16.69a7.51,7.51,0,0,0,10.6,0c15.69-15.7,40.51-24.66,57.9-7.26s8.43,42.2-7.26,57.89l-.65.65L100,160.08,57.44,117.52H36.22L94.7,176a7.48,7.48,0,0,0,10.6,0l61.25-61.24c13-13,20.31-27.89,21-42.93A47.34,47.34,0,0,0,173.81,35.64Z"/><path d="M67.67,106a6,6,0,0,0,5.16-2.93L76,97.84l15.76,30A6,6,0,0,0,97,131h0a6,6,0,0,0,5.3-3.19l15.89-29.95,3,5.18a6,6,0,0,0,5.18,3h12a6,6,0,0,0,0-12h-8.6l-6.74-11.48a6,6,0,0,0-5.17-3h-.13a6,6,0,0,0-5.17,3.19L97,112.15,81.58,82.76a6,6,0,0,0-5.15-3.2h-.16a6,6,0,0,0-5.15,2.93L64.26,94H16.13a6,6,0,1,0,0,12H67.67Z"/></g></svg>