<svg id="Vías" xmlns="http://www.w3.org/2000/svg" viewBox="0 0 200 200"><path d="M61.59,22a7.5,7.5,0,0,0-8.92,5.74L22,169.12A7.5,7.5,0,0,0,27.7,178a7.25,7.25,0,0,0,1.6.17,7.5,7.5,0,0,0,7.32-5.91L67.33,30.88A7.5,7.5,0,0,0,61.59,22Z"/><path d="M178,169.12,147.33,27.7a7.5,7.5,0,1,0-14.66,3.18L163.38,172.3a7.5,7.5,0,0,0,7.32,5.91,7.25,7.25,0,0,0,1.6-.17A7.5,7.5,0,0,0,178,169.12Z"/><path d="M100,21.79a7.5,7.5,0,0,0-7.5,7.5V50a7.5,7.5,0,0,0,15,0V29.29A7.5,7.5,0,0,0,100,21.79Z"/><path d="M100,83.43a7.5,7.5,0,0,0-7.5,7.5v20.71a7.5,7.5,0,0,0,15,0V90.93A7.5,7.5,0,0,0,100,83.43Z"/><path d="M100,142.5a7.5,7.5,0,0,0-7.5,7.5v20.71a7.5,7.5,0,1,0,15,0V150A7.5,7.5,0,0,0,100,142.5Z"/></svg>