<?xml version="1.0" encoding="UTF-8"?>
<svg xmlns="http://www.w3.org/2000/svg" xmlns:xlink="http://www.w3.org/1999/xlink" width="810pt" height="809.999993pt" viewBox="0 0 810 809.999993" version="1.2">
<defs>
<clipPath id="clip1">
  <path d="M 308.144531 232.839844 L 322 232.839844 L 322 509.589844 L 308.144531 509.589844 Z M 308.144531 232.839844 "/>
</clipPath>
<clipPath id="clip2">
  <path d="M 487 232.839844 L 501.644531 232.839844 L 501.644531 509.589844 L 487 509.589844 Z M 487 232.839844 "/>
</clipPath>
</defs>
<g id="surface1">
<g clip-path="url(#clip1)" clip-rule="nonzero">
<path style=" stroke:none;fill-rule:nonzero;fill:rgb(19.60907%,22.749329%,25.099182%);fill-opacity:1;" d="M 315.054688 232.839844 C 314.601562 232.839844 314.152344 232.882812 313.707031 232.972656 C 313.261719 233.0625 312.832031 233.191406 312.410156 233.367188 C 311.992188 233.539062 311.59375 233.753906 311.214844 234.003906 C 310.839844 234.257812 310.488281 234.542969 310.167969 234.867188 C 309.847656 235.1875 309.5625 235.535156 309.308594 235.914062 C 309.058594 236.292969 308.84375 236.691406 308.671875 237.109375 C 308.496094 237.53125 308.367188 237.960938 308.277344 238.40625 C 308.1875 238.855469 308.144531 239.304688 308.144531 239.757812 L 308.144531 502.671875 C 308.144531 503.125 308.1875 503.574219 308.277344 504.019531 C 308.367188 504.464844 308.496094 504.898438 308.671875 505.316406 C 308.84375 505.738281 309.058594 506.136719 309.308594 506.515625 C 309.5625 506.890625 309.847656 507.242188 310.167969 507.5625 C 310.488281 507.882812 310.839844 508.171875 311.214844 508.421875 C 311.59375 508.675781 311.992188 508.886719 312.410156 509.0625 C 312.832031 509.234375 313.261719 509.367188 313.707031 509.457031 C 314.152344 509.542969 314.601562 509.589844 315.054688 509.589844 C 315.507812 509.589844 315.957031 509.542969 316.402344 509.457031 C 316.847656 509.367188 317.28125 509.234375 317.699219 509.0625 C 318.121094 508.886719 318.515625 508.675781 318.894531 508.421875 C 319.273438 508.171875 319.621094 507.882812 319.941406 507.5625 C 320.261719 507.242188 320.550781 506.890625 320.800781 506.515625 C 321.054688 506.136719 321.265625 505.738281 321.441406 505.316406 C 321.613281 504.898438 321.746094 504.464844 321.832031 504.019531 C 321.921875 503.574219 321.964844 503.125 321.964844 502.671875 L 321.964844 239.757812 C 321.964844 239.304688 321.921875 238.855469 321.832031 238.40625 C 321.746094 237.960938 321.613281 237.53125 321.441406 237.109375 C 321.265625 236.691406 321.054688 236.292969 320.800781 235.914062 C 320.550781 235.535156 320.261719 235.1875 319.941406 234.867188 C 319.621094 234.542969 319.273438 234.257812 318.894531 234.003906 C 318.515625 233.753906 318.121094 233.539062 317.699219 233.367188 C 317.28125 233.191406 316.847656 233.0625 316.402344 232.972656 C 315.957031 232.882812 315.507812 232.839844 315.054688 232.839844 Z M 315.054688 232.839844 "/>
</g>
<g clip-path="url(#clip2)" clip-rule="nonzero">
<path style=" stroke:none;fill-rule:nonzero;fill:rgb(19.60907%,22.749329%,25.099182%);fill-opacity:1;" d="M 494.730469 232.839844 C 494.277344 232.839844 493.828125 232.882812 493.382812 232.972656 C 492.9375 233.0625 492.507812 233.191406 492.085938 233.367188 C 491.667969 233.539062 491.269531 233.753906 490.890625 234.003906 C 490.515625 234.257812 490.167969 234.542969 489.84375 234.867188 C 489.523438 235.1875 489.238281 235.535156 488.984375 235.914062 C 488.734375 236.292969 488.519531 236.691406 488.347656 237.109375 C 488.171875 237.53125 488.042969 237.960938 487.953125 238.40625 C 487.867188 238.855469 487.820312 239.304688 487.820312 239.757812 L 487.820312 502.671875 C 487.820312 503.125 487.867188 503.574219 487.953125 504.019531 C 488.042969 504.464844 488.171875 504.898438 488.347656 505.316406 C 488.519531 505.738281 488.734375 506.136719 488.984375 506.515625 C 489.238281 506.890625 489.523438 507.242188 489.84375 507.5625 C 490.167969 507.882812 490.515625 508.171875 490.890625 508.421875 C 491.269531 508.675781 491.667969 508.886719 492.085938 509.0625 C 492.507812 509.234375 492.9375 509.367188 493.382812 509.457031 C 493.828125 509.542969 494.277344 509.589844 494.730469 509.589844 C 495.1875 509.589844 495.636719 509.542969 496.082031 509.457031 C 496.523438 509.367188 496.957031 509.234375 497.375 509.0625 C 497.796875 508.886719 498.195312 508.675781 498.570312 508.421875 C 498.949219 508.171875 499.296875 507.882812 499.617188 507.5625 C 499.9375 507.242188 500.226562 506.890625 500.476562 506.515625 C 500.730469 506.136719 500.941406 505.738281 501.117188 505.316406 C 501.289062 504.898438 501.421875 504.464844 501.507812 504.019531 C 501.597656 503.574219 501.640625 503.125 501.640625 502.671875 L 501.640625 239.757812 C 501.640625 239.304688 501.597656 238.855469 501.507812 238.40625 C 501.421875 237.960938 501.289062 237.53125 501.117188 237.109375 C 500.941406 236.691406 500.730469 236.292969 500.476562 235.914062 C 500.226562 235.535156 499.9375 235.1875 499.617188 234.867188 C 499.296875 234.542969 498.949219 234.257812 498.570312 234.003906 C 498.195312 233.753906 497.796875 233.539062 497.375 233.367188 C 496.957031 233.191406 496.523438 233.0625 496.082031 232.972656 C 495.636719 232.882812 495.1875 232.839844 494.730469 232.839844 Z M 494.730469 232.839844 "/>
</g>
<path style=" stroke:none;fill-rule:nonzero;fill:rgb(19.60907%,22.749329%,25.099182%);fill-opacity:1;" d="M 404.894531 246.675781 C 404.441406 246.675781 403.992188 246.722656 403.546875 246.808594 C 403.101562 246.898438 402.667969 247.03125 402.25 247.203125 C 401.828125 247.378906 401.433594 247.589844 401.054688 247.84375 C 400.675781 248.09375 400.328125 248.382812 400.007812 248.703125 C 399.6875 249.023438 399.398438 249.375 399.148438 249.75 C 398.894531 250.128906 398.683594 250.527344 398.507812 250.949219 C 398.335938 251.367188 398.203125 251.800781 398.117188 252.246094 C 398.027344 252.691406 397.984375 253.140625 397.984375 253.59375 L 397.984375 281.269531 C 397.984375 281.726562 398.027344 282.175781 398.117188 282.621094 C 398.203125 283.066406 398.335938 283.5 398.507812 283.917969 C 398.683594 284.335938 398.894531 284.738281 399.148438 285.113281 C 399.398438 285.492188 399.6875 285.839844 400.007812 286.164062 C 400.328125 286.484375 400.675781 286.769531 401.054688 287.023438 C 401.433594 287.277344 401.828125 287.488281 402.25 287.664062 C 402.667969 287.835938 403.101562 287.96875 403.546875 288.054688 C 403.992188 288.144531 404.441406 288.1875 404.894531 288.1875 C 405.347656 288.1875 405.796875 288.144531 406.242188 288.054688 C 406.6875 287.96875 407.117188 287.835938 407.539062 287.664062 C 407.957031 287.488281 408.355469 287.277344 408.734375 287.023438 C 409.109375 286.769531 409.460938 286.484375 409.78125 286.164062 C 410.101562 285.839844 410.386719 285.492188 410.640625 285.113281 C 410.890625 284.738281 411.105469 284.335938 411.277344 283.917969 C 411.453125 283.5 411.582031 283.066406 411.671875 282.621094 C 411.761719 282.175781 411.804688 281.726562 411.804688 281.269531 L 411.804688 253.59375 C 411.804688 253.140625 411.761719 252.691406 411.671875 252.246094 C 411.582031 251.800781 411.453125 251.367188 411.277344 250.949219 C 411.105469 250.527344 410.890625 250.128906 410.640625 249.75 C 410.386719 249.375 410.101562 249.023438 409.78125 248.703125 C 409.460938 248.382812 409.109375 248.09375 408.734375 247.84375 C 408.355469 247.589844 407.957031 247.378906 407.539062 247.203125 C 407.117188 247.03125 406.6875 246.898438 406.242188 246.808594 C 405.796875 246.722656 405.347656 246.675781 404.894531 246.675781 Z M 404.894531 246.675781 "/>
<path style=" stroke:none;fill-rule:nonzero;fill:rgb(19.60907%,22.749329%,25.099182%);fill-opacity:1;" d="M 404.894531 315.863281 C 404.441406 315.863281 403.992188 315.910156 403.546875 315.996094 C 403.101562 316.085938 402.667969 316.21875 402.25 316.390625 C 401.828125 316.566406 401.433594 316.777344 401.054688 317.03125 C 400.675781 317.28125 400.328125 317.570312 400.007812 317.890625 C 399.6875 318.210938 399.398438 318.5625 399.148438 318.9375 C 398.894531 319.316406 398.683594 319.714844 398.507812 320.136719 C 398.335938 320.554688 398.203125 320.988281 398.117188 321.433594 C 398.027344 321.878906 397.984375 322.328125 397.984375 322.78125 L 397.984375 350.457031 C 397.984375 350.910156 398.027344 351.363281 398.117188 351.808594 C 398.203125 352.253906 398.335938 352.6875 398.507812 353.105469 C 398.683594 353.523438 398.894531 353.925781 399.148438 354.300781 C 399.398438 354.679688 399.6875 355.027344 400.007812 355.351562 C 400.328125 355.671875 400.675781 355.957031 401.054688 356.210938 C 401.433594 356.464844 401.828125 356.675781 402.25 356.851562 C 402.667969 357.023438 403.101562 357.15625 403.546875 357.242188 C 403.992188 357.332031 404.441406 357.375 404.894531 357.375 C 405.347656 357.375 405.796875 357.332031 406.242188 357.242188 C 406.6875 357.15625 407.117188 357.023438 407.539062 356.851562 C 407.957031 356.675781 408.355469 356.464844 408.734375 356.210938 C 409.109375 355.957031 409.460938 355.671875 409.78125 355.351562 C 410.101562 355.027344 410.386719 354.679688 410.640625 354.300781 C 410.890625 353.925781 411.105469 353.523438 411.277344 353.105469 C 411.453125 352.6875 411.582031 352.253906 411.671875 351.808594 C 411.761719 351.363281 411.804688 350.910156 411.804688 350.457031 L 411.804688 322.78125 C 411.804688 322.328125 411.761719 321.878906 411.671875 321.433594 C 411.582031 320.988281 411.453125 320.554688 411.277344 320.136719 C 411.105469 319.714844 410.890625 319.316406 410.640625 318.9375 C 410.386719 318.5625 410.101562 318.210938 409.78125 317.890625 C 409.460938 317.570312 409.109375 317.28125 408.734375 317.03125 C 408.355469 316.777344 407.957031 316.566406 407.539062 316.390625 C 407.117188 316.21875 406.6875 316.085938 406.242188 315.996094 C 405.796875 315.910156 405.347656 315.863281 404.894531 315.863281 Z M 404.894531 315.863281 "/>
<path style=" stroke:none;fill-rule:nonzero;fill:rgb(19.60907%,22.749329%,25.099182%);fill-opacity:1;" d="M 404.894531 385.050781 C 404.441406 385.050781 403.992188 385.097656 403.546875 385.183594 C 403.101562 385.273438 402.667969 385.40625 402.25 385.578125 C 401.828125 385.753906 401.433594 385.964844 401.054688 386.21875 C 400.675781 386.46875 400.328125 386.757812 400.007812 387.078125 C 399.6875 387.398438 399.398438 387.75 399.148438 388.125 C 398.894531 388.503906 398.683594 388.902344 398.507812 389.324219 C 398.335938 389.742188 398.203125 390.175781 398.117188 390.621094 C 398.027344 391.066406 397.984375 391.515625 397.984375 391.96875 L 397.984375 419.644531 C 397.984375 420.097656 398.027344 420.550781 398.117188 420.996094 C 398.203125 421.441406 398.335938 421.875 398.507812 422.292969 C 398.683594 422.710938 398.894531 423.113281 399.148438 423.488281 C 399.398438 423.867188 399.6875 424.214844 400.007812 424.539062 C 400.328125 424.859375 400.675781 425.144531 401.054688 425.398438 C 401.433594 425.652344 401.828125 425.863281 402.25 426.039062 C 402.667969 426.210938 403.101562 426.34375 403.546875 426.429688 C 403.992188 426.519531 404.441406 426.5625 404.894531 426.5625 C 405.347656 426.5625 405.796875 426.519531 406.242188 426.429688 C 406.6875 426.34375 407.117188 426.210938 407.539062 426.039062 C 407.957031 425.863281 408.355469 425.652344 408.734375 425.398438 C 409.109375 425.144531 409.460938 424.859375 409.78125 424.539062 C 410.101562 424.214844 410.386719 423.867188 410.640625 423.488281 C 410.890625 423.113281 411.105469 422.710938 411.277344 422.292969 C 411.453125 421.875 411.582031 421.441406 411.671875 420.996094 C 411.761719 420.550781 411.804688 420.097656 411.804688 419.644531 L 411.804688 391.96875 C 411.804688 391.515625 411.761719 391.066406 411.671875 390.621094 C 411.582031 390.175781 411.453125 389.742188 411.277344 389.324219 C 411.105469 388.902344 410.890625 388.503906 410.640625 388.125 C 410.386719 387.75 410.101562 387.398438 409.78125 387.078125 C 409.460938 386.757812 409.109375 386.46875 408.734375 386.21875 C 408.355469 385.964844 407.957031 385.753906 407.539062 385.578125 C 407.117188 385.40625 406.6875 385.273438 406.242188 385.183594 C 405.796875 385.097656 405.347656 385.050781 404.894531 385.050781 Z M 404.894531 385.050781 "/>
<path style=" stroke:none;fill-rule:nonzero;fill:rgb(19.60907%,22.749329%,25.099182%);fill-opacity:1;" d="M 404.894531 454.238281 C 404.441406 454.238281 403.992188 454.285156 403.546875 454.371094 C 403.101562 454.460938 402.667969 454.59375 402.25 454.765625 C 401.828125 454.941406 401.433594 455.152344 401.054688 455.40625 C 400.675781 455.65625 400.328125 455.945312 400.007812 456.265625 C 399.6875 456.585938 399.398438 456.9375 399.148438 457.3125 C 398.894531 457.691406 398.683594 458.089844 398.507812 458.511719 C 398.335938 458.929688 398.203125 459.363281 398.117188 459.808594 C 398.027344 460.253906 397.984375 460.703125 397.984375 461.15625 L 397.984375 488.832031 C 397.984375 489.285156 398.027344 489.738281 398.117188 490.183594 C 398.203125 490.628906 398.335938 491.0625 398.507812 491.480469 C 398.683594 491.898438 398.894531 492.300781 399.148438 492.675781 C 399.398438 493.054688 399.6875 493.402344 400.007812 493.726562 C 400.328125 494.046875 400.675781 494.332031 401.054688 494.585938 C 401.433594 494.839844 401.828125 495.050781 402.25 495.226562 C 402.667969 495.398438 403.101562 495.53125 403.546875 495.617188 C 403.992188 495.707031 404.441406 495.75 404.894531 495.75 C 405.347656 495.75 405.796875 495.707031 406.242188 495.617188 C 406.6875 495.53125 407.117188 495.398438 407.539062 495.226562 C 407.957031 495.050781 408.355469 494.839844 408.734375 494.585938 C 409.109375 494.332031 409.460938 494.046875 409.78125 493.726562 C 410.101562 493.402344 410.386719 493.054688 410.640625 492.675781 C 410.890625 492.300781 411.105469 491.898438 411.277344 491.480469 C 411.453125 491.0625 411.582031 490.628906 411.671875 490.183594 C 411.761719 489.738281 411.804688 489.285156 411.804688 488.832031 L 411.804688 461.15625 C 411.804688 460.703125 411.761719 460.253906 411.671875 459.808594 C 411.582031 459.363281 411.453125 458.929688 411.277344 458.511719 C 411.105469 458.089844 410.890625 457.691406 410.640625 457.3125 C 410.386719 456.9375 410.101562 456.585938 409.78125 456.265625 C 409.460938 455.945312 409.109375 455.65625 408.734375 455.40625 C 408.355469 455.152344 407.957031 454.941406 407.539062 454.765625 C 407.117188 454.59375 406.6875 454.460938 406.242188 454.371094 C 405.796875 454.285156 405.347656 454.238281 404.894531 454.238281 Z M 404.894531 454.238281 "/>
</g>
</svg>
